<?xml version="1.0" encoding="UTF-8"?>
<svg xmlns="http://www.w3.org/2000/svg" viewBox="0 0 960 540" role="img" aria-labelledby="t d">
  <title id="t">One tools/call request and the result it produced, field by field</title>
  <desc id="d">Two panels of equal size joined by a short arrow. The left panel is a tools slash call request with four labelled fields on stacked rows: method, name, arguments, and the per-request metadata object holding the protocol version, the client capabilities and the client info. A footnote expands the abbreviated key prefix as io dot modelcontextprotocol slash, and notes say every argument must satisfy the declared input schema and that a Resolve parameter never appears in it. The right panel is the result, with four fields on the same four rows: resultType complete, an array of content blocks, structuredContent carrying the same answer as machine-readable JSON, and isError, which is false here. Notes say the text block repeats the same JSON and that the client validates the structured data against the declared output schema, so missing or non-conforming data fails on the client rather than the server. A band across the bottom records what is absent: no earlier message, no handshake, no session identifier, and nothing carried over from a previous call.</desc>

  <style><![CDATA[
    :root{--mcp-bg:#FAFAF7;--mcp-surface:#FFFFFF;--mcp-ink:#1A1A1A;--mcp-ink-muted:#5C5C5C;--mcp-ink-subtle:#9A9A9A;--mcp-border:#D9D9D4;--mcp-primary:#4D6CA2;--mcp-accent:#D98E5F;--mcp-success:#5C9E78;--mcp-warn:#B8895A;--mcp-alert:#C66B5E;--mcp-neutral-1:#EAEAE4;--mcp-neutral-2:#CFCFC8;--mcp-on-fill:#FFFDF9;--mcp-on-accent:#1A1A1A;}
    @media (prefers-color-scheme:dark){:root{--mcp-bg:#0E0F12;--mcp-surface:#16181C;--mcp-ink:#F2F2EE;--mcp-ink-muted:#B4B4AE;--mcp-ink-subtle:#6E6E68;--mcp-border:#2A2D33;--mcp-primary:#8BA8E0;--mcp-accent:#E8B088;--mcp-success:#7FBF9B;--mcp-warn:#D4B58A;--mcp-alert:#D88880;--mcp-neutral-1:#1F2229;--mcp-neutral-2:#2C3038;--mcp-on-fill:#14161A;--mcp-on-accent:#1A1A1A;}}
    .bg{fill:var(--mcp-bg);}
    text{dominant-baseline:auto;}
  ]]></style>

  <rect class="bg" width="960" height="540"/>
<text xml:space="preserve" x="480" y="46.08" text-anchor="middle" font-family='"Excalifont","Virgil","Segoe Print","Comic Sans MS",ui-rounded,cursive' font-size="24" fill="var(--mcp-ink)">Anatomy of a tool call</text><text xml:space="preserve" x="480" y="68.88" text-anchor="middle" font-family='"Excalifont","Virgil","Segoe Print","Comic Sans MS",ui-rounded,cursive' font-size="14" fill="var(--mcp-ink-muted)">One request, one result, and the two fields each side cannot leave out.</text><path d="M61.19 84.74C201.83 85.1 341.12 85.18 435.6 84.06C451.53 86.47 458.73 91.74 457.43 106.95C461.75 203.41 458.43 300.88 461.39 415.78C462.59 431.66 450.85 442.43 434.76 438.58C299.52 439.12 162.37 441.01 60.65 440.7C45.92 441.41 37.75 430.02 37.35 414.34C36.46 311.87 36.91 203.63 36.34 108.82C35.17 91.34 44.54 84.47 58.36 84.12C60 84 60 84 60 84" fill="var(--mcp-surface)" stroke="none"/><path d="M59.56 83.33C176.96 86.48 294.71 85.07 436.59 84.64M60.6 84.41C138.22 84.49 217.5 83.65 435.8 83.67M436 84C450.3 84.19 461.28 93.58 460.09 106.31M437.5 85.94C453.59 83.4 458.5 94.07 458.79 110.06M460.1 107.37C461.16 186.93 461.62 267.21 461.13 414.69M460.43 107.74C460.25 204.04 460.54 299.02 460.51 415.76M460 416C461.04 430.72 453.32 441.44 435.18 439.25M459.16 415.88C459.78 432 451.65 440.92 436.88 437.73M435.52 440.64C288.69 439.02 138.86 440.16 58.8 440.65M435.64 440.4C306.91 441.74 177.36 441.32 60.24 440.28M60 440C42.81 438.56 37.78 430.7 38 415.68M61.94 440.38C43.78 439.43 36.56 431.47 37.17 418.02M34.84 416.34C33.48 339.67 32.72 264.52 37.15 107.94M35.69 416.58C36.97 339.49 37.05 263.2 36.57 107.38M36 108C34.85 92.63 45.19 85.75 59 82.57M34.19 108.77C36.93 93.97 46.07 83.09 60.38 84.88M60 84C60 84 60 84 60 84M60 84C60 84 60 84 60 84" fill="none" stroke="var(--mcp-border)" stroke-width="1.5" stroke-linecap="round" stroke-linejoin="round"/><text xml:space="preserve" x="56" y="110.72" text-anchor="start" font-family='"Excalifont","Virgil","Segoe Print","Comic Sans MS",ui-rounded,cursive' font-size="16" fill="var(--mcp-ink)">Request</text><text xml:space="preserve" x="142" y="111.04" text-anchor="start" font-family='"JetBrains Mono",ui-monospace,Menlo,monospace' font-size="12" fill="var(--mcp-ink-muted)">tools/call</text><text xml:space="preserve" x="56" y="134.12" text-anchor="start" font-family='"Excalifont","Virgil","Segoe Print","Comic Sans MS",ui-rounded,cursive' font-size="11" fill="var(--mcp-ink-muted)">name and _meta are required. arguments may be left out.</text><path d="M56.43 149.67C78.35 150.31 97.68 146.07 137.86 149.66C140.79 147.31 142.54 147.09 145.93 153.09C143.35 156.84 143.87 160.24 143.58 169.28C143.21 172.38 141.47 174.36 137.4 173.47C117.17 171.6 93.39 169.42 54.35 173.34C54.95 173.14 53.61 171.15 52.34 166.44C53.37 164.46 51.05 160.04 51.44 150.87C50.96 146.96 51.01 147.03 53.71 146.23C56 148 56 148 56 148" fill="var(--mcp-primary)" stroke="none"/><path d="M57.95 146.91C76.64 148.77 97.16 149.13 139.07 148.67M55.86 148.09C85.14 148.41 114.4 148.08 139.74 147.66M140 148C143.76 148.83 142.22 147.82 144.15 151.31M139.16 147.94C142.31 149.79 145.74 147.75 145.45 152.9M145.58 151.29C143.03 157 144.37 163.43 144.53 169.37M143.53 152.71C143.14 157.7 143.89 162.6 143.28 167.42M144 168C142.08 170.84 143.3 173.07 139.22 173.54M143.5 166.8C145.37 168.54 142.57 172.98 140.24 170.58M141.07 173.24C109.52 174.32 80.88 172.72 57.44 171.21M140.31 171.5C113.26 172.75 84.64 173.53 56.46 171.71M56 172C52.08 172.05 53.35 168.81 51.92 166.62M57.67 170.12C52.36 169.86 50.15 169.47 53.85 166.76M53.43 166.78C52.55 162.04 50.85 155.88 52.51 150.72M51.85 167.71C51.98 162.52 51.77 156.34 52.67 152.41M52 152C51.36 150.14 51.86 147.94 57.2 148.49M50.17 153.52C52.32 147.54 52.78 150.02 56.96 150.03M56 148C56 148 56 148 56 148M56 148C56 148 56 148 56 148" fill="none" stroke="var(--mcp-ink)" stroke-width="1.5" stroke-linecap="round" stroke-linejoin="round"/><text xml:space="preserve" x="98" y="164.04" text-anchor="middle" font-family='"Excalifont","Virgil","Segoe Print","Comic Sans MS",ui-rounded,cursive' font-size="12" fill="var(--mcp-on-fill)">method</text><text xml:space="preserve" x="158" y="164.12" text-anchor="start" font-family='"JetBrains Mono",ui-monospace,Menlo,monospace' font-size="11" fill="var(--mcp-ink)">&quot;tools/call&quot;</text><path d="M57.89 186.71C77.07 188.38 96 188.65 138.05 187.53C143.64 188.15 142.39 187.51 145.4 191.39C144.5 195.78 142.97 196.31 145.22 206.35C143.27 209.31 142.73 212.31 141.59 212.34C109.5 207.53 82.05 209.19 54.91 210.19C50.83 210.93 52.2 208.41 50.28 207.12C52.81 201.22 51.5 196.25 51.77 190.46C52.11 186.28 54.06 186.54 58.42 184.1C56 186 56 186 56 186" fill="var(--mcp-primary)" stroke="none"/><path d="M57.96 185.92C87.22 186.69 118.25 186.05 139.64 185.38M56.51 185.16C74.19 185.29 91.78 185.25 140.79 185.3M140 186C143.85 184.31 142.93 186.5 144.2 189.06M140.4 187.43C143.16 184.98 144.71 187.6 142.84 187.73M144.28 190.89C142.58 195.17 142.94 200.1 145.58 205.5M143.61 189.46C144.56 193.11 143.63 196.1 143.91 205.58M144 206C144.87 209.92 142.77 209.8 139.25 208.26M142.76 207C144.27 209.54 141.61 208.72 138.6 209.22M138.47 208.38C108.35 209.07 80.02 211.88 57.01 211.8M139.99 209.13C118.18 211.52 95.62 210.91 55 210.15M56 210C53.03 209.16 50.02 208.39 50.37 205.82M57.46 210.43C52.93 207.83 51.79 210.42 52.06 208.07M52.26 205.99C50.96 202.58 53.42 197.03 52.74 191.01M51.6 205.4C51.67 201.98 52.45 198.16 51.5 189.24M52 190C50.74 189.27 54.87 187.58 57.85 187.94M52.15 190.08C53.02 189.61 54.26 185.61 56.24 186.6M56 186C56 186 56 186 56 186M56 186C56 186 56 186 56 186" fill="none" stroke="var(--mcp-ink)" stroke-width="1.5" stroke-linecap="round" stroke-linejoin="round"/><text xml:space="preserve" x="98" y="202.04" text-anchor="middle" font-family='"Excalifont","Virgil","Segoe Print","Comic Sans MS",ui-rounded,cursive' font-size="12" fill="var(--mcp-on-fill)">name</text><text xml:space="preserve" x="158" y="202.12" text-anchor="start" font-family='"JetBrains Mono",ui-monospace,Menlo,monospace' font-size="11" fill="var(--mcp-ink)">&quot;find_process&quot;</text><path d="M54.15 231.76C75.8 234.45 99.52 234.04 138.23 233.41C141.28 231.78 142.24 235.92 144.87 237.69C145.65 238.57 142.08 244.54 142.7 251.41C143.33 254.25 143.99 258.26 140.58 254C118.63 256.66 99.12 256.95 55.46 255.04C51.9 256.73 50.8 253.66 53.42 250.6C52.26 249.18 51.95 246.87 52.11 238.05C53.25 233.6 51.91 234.06 57.93 229.98C56 232 56 232 56 232" fill="var(--mcp-primary)" stroke="none"/><path d="M57.96 232.93C77 232.6 101.73 230.98 140.22 230.1M55.16 232.23C78.04 232.03 100.76 232.27 139.83 232.95M140 232C143.95 231.8 143.64 233.18 144.24 234.81M141.64 230.93C144 232.77 143.69 235.46 144.83 235.16M142.98 235.29C142.48 241.33 145.06 247.97 143.43 252.83M143.7 235.81C144.73 239.72 143.71 245.59 144.55 251.75M144 252C143.65 253.01 142.25 254.52 139.28 254.98M142.01 251.19C143.16 253.93 140.66 257.06 141.57 255.86M139.87 255.52C107.18 255.83 79.16 255.04 56.58 256.4M139.66 256.76C123.09 256.29 106.6 256.29 55.55 256.58M56 256C53.98 254.27 50.7 255.97 52.81 253.02M57.26 254.73C53.51 253.8 53.43 254.77 50.27 252.77M51.1 253.19C52.22 244.72 52.44 239.77 52.96 236.1M51.34 252.69C51.36 247.84 51.52 243.17 51.93 235.67M52 236C50.12 232.41 53.87 231.23 54.49 231.38M50.14 234.64C53.71 235.08 51.14 233.81 55.52 231.16M56 232C56 232 56 232 56 232M56 232C56 232 56 232 56 232" fill="none" stroke="var(--mcp-ink)" stroke-width="1.5" stroke-linecap="round" stroke-linejoin="round"/><text xml:space="preserve" x="98" y="248.04" text-anchor="middle" font-family='"Excalifont","Virgil","Segoe Print","Comic Sans MS",ui-rounded,cursive' font-size="12" fill="var(--mcp-on-fill)">arguments</text><text xml:space="preserve" x="158" y="248.12" text-anchor="start" font-family='"JetBrains Mono",ui-monospace,Menlo,monospace' font-size="11" fill="var(--mcp-ink)">{ &quot;name&quot;: &quot;explorer&quot;, &quot;limit&quot;: 2 }</text><path d="M55.6 286.8C79.72 290.52 97.85 289.43 138.42 289.28C144.13 285.41 142.1 289.14 144.34 293.99C142.64 295.52 145.35 298.61 144.34 306.47C143.39 309.19 145.26 314.22 139.56 310.87C110.96 310.59 87.78 314.71 56.02 309.89C52.97 312.53 54.59 308.92 51.36 309.28C51.88 303.95 52.57 301.08 52.44 291.49C54.39 290.92 54.96 286.37 57.44 285.86C56 288 56 288 56 288" fill="var(--mcp-primary)" stroke="none"/><path d="M57.97 289.94C87.58 288.51 118.82 289.9 140.79 288.81M55.81 287.3C83.9 286.91 109.74 287.44 140.88 288.6M140 288C144.04 289.28 144.35 289.86 144.29 290.56M138.88 288.43C144.85 285.96 142.67 288.72 142.23 292.59M144.88 292.88C145.58 297.5 143.98 299.44 144.48 306.95M143.79 292.16C144.55 297.92 143.45 303.49 143.58 307.91M144 308C142.43 310.09 141.73 313.25 139.31 311.69M145.27 309.38C142.05 312.93 144.3 310.8 139.93 312.5M141.27 312.66C106.01 310.44 74.3 314.04 56.15 310.99M139.33 312.39C111.21 313.06 81.99 313.67 56.1 311.01M56 312C54.93 313.38 51.37 309.56 51.25 306.22M57.05 313.04C54.09 309.78 50.48 309.12 53.08 307.48M53.14 307.2C50.64 303.25 51.81 298.92 53.19 291.18M52.69 308.39C51.4 302.1 52.54 298.18 52.35 292.1M52 292C53.51 289.54 52.87 288.87 55.14 288.82M52.12 293.2C49.8 290.56 52.62 287.41 54.8 285.72M56 288C56 288 56 288 56 288M56 288C56 288 56 288 56 288" fill="none" stroke="var(--mcp-ink)" stroke-width="1.5" stroke-linecap="round" stroke-linejoin="round"/><text xml:space="preserve" x="98" y="304.04" text-anchor="middle" font-family='"Excalifont","Virgil","Segoe Print","Comic Sans MS",ui-rounded,cursive' font-size="12" fill="var(--mcp-on-fill)">_meta</text><text xml:space="preserve" x="158" y="304.12" text-anchor="start" font-family='"JetBrains Mono",ui-monospace,Menlo,monospace' font-size="11" fill="var(--mcp-ink)">{ &quot;.../protocolVersion&quot;: &quot;2026-07-28&quot;,</text><text xml:space="preserve" x="158" y="322.12" text-anchor="start" font-family='"JetBrains Mono",ui-monospace,Menlo,monospace' font-size="11" fill="var(--mcp-ink)">  &quot;.../clientCapabilities&quot;: {},</text><text xml:space="preserve" x="158" y="340.12" text-anchor="start" font-family='"JetBrains Mono",ui-monospace,Menlo,monospace' font-size="11" fill="var(--mcp-ink)">  &quot;.../clientInfo&quot;: { … } }</text><text xml:space="preserve" x="52" y="358.12" text-anchor="start" font-family='"JetBrains Mono",ui-monospace,Menlo,monospace' font-size="11" fill="var(--mcp-ink-subtle)">.../  =  io.modelcontextprotocol/</text><text xml:space="preserve" x="52" y="382.12" text-anchor="start" font-family='"Excalifont","Virgil","Segoe Print","Comic Sans MS",ui-rounded,cursive' font-size="11" fill="var(--mcp-ink-muted)">Every argument must satisfy the declared inputSchema.</text><text xml:space="preserve" x="52" y="402.12" text-anchor="start" font-family='"Excalifont","Virgil","Segoe Print","Comic Sans MS",ui-rounded,cursive' font-size="11" fill="var(--mcp-ink-muted)">A Resolve parameter never appears here at all.</text><path d="M463.33 251.96C471.4 250.94 479.58 249.7 496.98 250.05M463.55 250.15C469.67 248.85 478.02 249.48 495.01 250.99" fill="none" stroke="var(--mcp-ink)" stroke-width="1.5" stroke-linecap="round" stroke-linejoin="round"/><path d="M485.96 245.51 L496 250 L485.96 254.49" fill="none" stroke="var(--mcp-ink)" stroke-width="1.5" stroke-linecap="round" stroke-linejoin="round"/><path d="M523.26 84.68C628.82 84.26 731.83 82.34 899.38 84.55C915.6 84.71 921.66 93.85 922.76 105.7C921.44 186.99 922.11 270.24 925 415.84C923.58 432.54 917.18 442.07 901.72 441.47C761.62 440.25 621.48 440.27 525.02 439.78C505.65 439.92 498.38 433.21 498.39 414.91C497.81 319.97 501.14 223.11 501.3 108.09C500.62 92.34 508.39 81.71 523.97 81.49C524 84 524 84 524 84" fill="var(--mcp-surface)" stroke="none"/><path d="M525.21 84.59C635.33 83.88 746.31 85.35 899.09 84.58M523.86 84.31C634.09 82.3 744.04 81.93 900.02 83.72M900 84C917.66 85.73 922.48 90.57 924.43 109.82M898.61 84.92C916.12 82.74 924.2 92.35 923.61 108.28M924.16 107.35C925.84 213.87 924.64 317.82 924.39 415.76M924.05 107.64C922.58 219.23 922.8 329.1 923.89 416.36M924 416C922.79 430.68 917.5 441.43 899.4 441.85M923.04 415.95C923.33 434.06 914.75 441.22 899.63 437.82M900.89 440.05C818 437.89 732.81 438.37 523.31 439.26M900.22 439.57C765.28 442.74 631.19 442.99 523.84 440.19M524 440C508.46 438.72 501.4 431.64 498.58 417.83M524.44 439.95C505.89 442.29 498.8 430.1 500.31 416.2M500.76 415.65C498.23 293.65 498.99 172.21 498.79 107.68M499.93 415.52C498.78 332.41 498.15 250.14 500.04 107.8M500 108C499.66 91.61 508.55 85.8 525.08 85.15M498.08 108.88C499.88 91.64 507.12 85.4 525.25 82.02M524 84C524 84 524 84 524 84M524 84C524 84 524 84 524 84" fill="none" stroke="var(--mcp-border)" stroke-width="1.5" stroke-linecap="round" stroke-linejoin="round"/><text xml:space="preserve" x="520" y="110.72" text-anchor="start" font-family='"Excalifont","Virgil","Segoe Print","Comic Sans MS",ui-rounded,cursive' font-size="16" fill="var(--mcp-ink)">Result</text><text xml:space="preserve" x="592" y="111.04" text-anchor="start" font-family='"JetBrains Mono",ui-monospace,Menlo,monospace' font-size="12" fill="var(--mcp-ink-muted)">CallToolResult</text><text xml:space="preserve" x="520" y="134.12" text-anchor="start" font-family='"Excalifont","Virgil","Segoe Print","Comic Sans MS",ui-rounded,cursive' font-size="11" fill="var(--mcp-ink-muted)">content is required. isError defaults to false.</text><path d="M522.45 149.59C564.68 146.31 607.54 149.17 641.49 150.46C644.86 145.56 645.46 149.2 646.06 151.83C647.52 157.6 648.32 164.23 647.14 169.35C649.39 173.26 647.79 174 644.37 171.16C611.04 169.25 575.32 169.18 518.96 171.83C519.88 171.64 514.24 169.15 518.57 167.01C514.93 163.6 515.8 161.97 516.5 150.07C516.41 147.96 514.85 149.47 519.32 148.79C520 148 520 148 520 148" fill="var(--mcp-accent)" stroke="none"/><path d="M520.67 148.98C549.84 145.37 577.67 146.48 644.6 148.58M520.64 147.93C549.33 149.04 578.81 147.48 644.09 147.73M644 148C647.12 146.37 647.43 148.81 648.49 150.82M644.27 146.92C644.84 149.13 646.83 150.63 650.27 151.11M646.44 151.27C647.6 157.14 647.1 160.07 647.7 167.36M648.7 152.6C648.66 158.42 647.72 163.7 648.19 168.09M648 168C647.83 170.79 647.47 173.07 643.44 172.14M647.38 166.88C648.92 170.6 645.67 173.28 642.99 170.67M643.34 172.27C597 170.82 550.72 172.15 518.28 172.91M643.25 172.13C601.13 170.81 560.16 170.7 519.8 171.56M520 172C517.73 172.2 516.96 169.75 516.51 168.76M520.17 173.69C519.06 172.72 516.99 172.7 516.99 169.54M516.36 169.22C517.13 163.59 517.12 158.68 517.09 150.43M516.11 168.12C515.47 165.23 516.08 161.37 516.08 151.29M516 152C516.17 149.12 519.22 147.99 519.27 147.07M514.06 153.63C515.27 149.81 518.43 147.73 521.83 147.17M520 148C520 148 520 148 520 148M520 148C520 148 520 148 520 148" fill="none" stroke="var(--mcp-ink)" stroke-width="1.5" stroke-linecap="round" stroke-linejoin="round"/><text xml:space="preserve" x="582" y="164.04" text-anchor="middle" font-family='"Excalifont","Virgil","Segoe Print","Comic Sans MS",ui-rounded,cursive' font-size="12" fill="var(--mcp-on-accent)">resultType</text><text xml:space="preserve" x="662" y="164.12" text-anchor="start" font-family='"JetBrains Mono",ui-monospace,Menlo,monospace' font-size="11" fill="var(--mcp-ink)">&quot;complete&quot;</text><path d="M518.7 186.63C563.6 184.38 606.24 186.56 641.68 188.34C647.7 186.39 650.51 189.62 645.53 190.13C648.67 193.34 647.43 198.06 648.78 206.41C649.45 210.19 649.06 211.95 643.35 210.03C600.06 210.42 552.15 208.98 519.52 208.68C515.75 209.44 518.03 206.41 516.52 207.69C514.37 200.36 516.25 198.18 516.83 189.66C517.56 187.28 517.91 183.78 518.83 186.67C520 186 520 186 520 186" fill="var(--mcp-accent)" stroke="none"/><path d="M520.68 187.99C560.69 183.5 603.3 183.62 645.17 185.29M519.29 185C555.46 185.37 592.34 184.09 643.14 185.38M644 186C647.21 185.85 648.14 187.49 648.53 188.57M645.51 186.42C645.69 184.33 645.81 185.89 647.67 190.54M648.34 190.86C647.15 195.3 648.87 199.94 648.75 206.69M648.79 189.35C648.48 193.82 647.46 198.79 647.22 206.25M648 206C646.62 209.88 646.95 209.79 643.47 210.85M646.64 207.07C647.82 207 644.71 209.02 645.95 209.31M644.74 211.4C595.32 209.17 548.83 210.91 521.85 209.5M644.93 209.76C608.52 209.6 574.1 208.11 520.34 209.99M520 210C518.68 209.32 517.64 209.33 514.95 207.96M519.96 210C515.04 210.69 514.03 209.05 515.2 206.25M515.19 205.22C515.2 200.93 516.14 199.83 517.32 190.72M515.86 205.82C516.76 201.49 516.75 198.39 516.51 189.72M516 190C515.55 188.25 518.22 187.63 519.92 186.52M516.04 190.19C515.97 187.28 515.31 187.93 521.11 183.73M520 186C520 186 520 186 520 186M520 186C520 186 520 186 520 186" fill="none" stroke="var(--mcp-ink)" stroke-width="1.5" stroke-linecap="round" stroke-linejoin="round"/><text xml:space="preserve" x="582" y="202.04" text-anchor="middle" font-family='"Excalifont","Virgil","Segoe Print","Comic Sans MS",ui-rounded,cursive' font-size="12" fill="var(--mcp-on-accent)">content</text><text xml:space="preserve" x="662" y="202.12" text-anchor="start" font-family='"JetBrains Mono",ui-monospace,Menlo,monospace' font-size="11" fill="var(--mcp-ink)">[ { &quot;type&quot;: &quot;text&quot;,</text><text xml:space="preserve" x="662" y="220.12" text-anchor="start" font-family='"JetBrains Mono",ui-monospace,Menlo,monospace' font-size="11" fill="var(--mcp-ink)">   &quot;text&quot;: &quot;{\&quot;query\&quot;: …}&quot; } ]</text><path d="M522.38 233.09C547.35 232.22 574.91 230.02 645.39 230.7C646.3 234.44 650.32 233.64 650.03 238.27C646.1 242.74 649.07 247.14 646.81 253.94C646.07 253.04 649.01 257.89 642 253.72C611.94 257.17 576.06 255.65 521.99 254.88C515.45 255.17 517.89 254.88 515.5 253.8C515.08 247.49 514.14 237.63 515.89 237.78C517.35 231.57 515.04 233.54 518.18 230.77C520 232 520 232 520 232" fill="var(--mcp-accent)" stroke="none"/><path d="M519.36 230C557.03 231.01 590.53 233.81 643.27 230.91M520.16 232.43C548.44 231.43 578.65 231.21 643.2 231.58M644 232C646 232.5 649.09 234.39 648.6 235.57M643.17 230.41C648.35 232.72 649.05 232.83 645.73 235.38M646.61 236.86C649.03 240.46 648.38 244.17 648.02 252.32M647.84 236.35C648.77 240.1 648.17 245.72 647.53 251.94M648 252C647.66 253.33 646.26 255.43 643.51 255.14M646.98 251.99C649.41 255.46 644.97 255.07 645.31 256.17M642.61 257.59C602.67 255.71 561.52 257.98 521.28 257.63M643.83 256.6C610.77 255.33 579.48 255.31 520.4 255.23M520 256C518.61 256.8 517.21 254.77 516.87 252.9M519.69 257.73C518.88 255.12 516.22 254.38 515.88 253.59M514.7 252.83C516.4 246.04 516.48 239.36 516.55 235.5M516.05 252.48C515.81 246.23 515.52 239.34 516.54 235.22M516 236C516.06 234.43 515.56 231.82 518.12 230.44M516.02 236.94C515.36 234.11 517.28 232.26 521.69 230.88M520 232C520 232 520 232 520 232M520 232C520 232 520 232 520 232" fill="none" stroke="var(--mcp-ink)" stroke-width="1.5" stroke-linecap="round" stroke-linejoin="round"/><text xml:space="preserve" x="582" y="248.04" text-anchor="middle" font-family='"Excalifont","Virgil","Segoe Print","Comic Sans MS",ui-rounded,cursive' font-size="12" fill="var(--mcp-on-accent)">structuredContent</text><text xml:space="preserve" x="662" y="248.12" text-anchor="start" font-family='"JetBrains Mono",ui-monospace,Menlo,monospace' font-size="11" fill="var(--mcp-ink)">{ &quot;query&quot;: &quot;explorer&quot;,</text><text xml:space="preserve" x="662" y="266.12" text-anchor="start" font-family='"JetBrains Mono",ui-monospace,Menlo,monospace' font-size="11" fill="var(--mcp-ink)">  &quot;total_matches&quot;: 1, … }</text><path d="M520.85 289.54C555.91 290.06 593.19 288.68 643.91 288.27C644.89 287.28 650.12 287.66 649.32 291.21C647.69 294.78 646.55 299.82 649 307.3C647.88 311.1 648.96 313.82 645.85 312.61C593.83 313.92 550.37 312.31 519.26 311.07C515.15 310.9 517.75 308.15 514.49 309.9C515.79 303.65 516.18 297.65 514.95 291.74C517.14 291.06 517.38 288.09 517.53 290.07C520 288 520 288 520 288" fill="var(--mcp-accent)" stroke="none"/><path d="M518.03 286.01C549.36 288.52 577.77 289.99 645.36 286.53M519.03 287.85C566.21 286.78 612.56 287.61 643.27 287.77M644 288C644.8 289.14 646.03 291.3 648.66 292.58M644.83 288.41C646.41 286.51 647.68 289.77 648.39 290.22M648.07 292.85C647.71 295.61 647.89 298.4 647.29 307.96M648.49 291.75C647.47 296.37 647.29 302.64 647.84 307.63M648 308C648.71 310.77 645.56 311.06 643.55 313.43M647.32 306.91C646.4 309.33 645.22 311.13 644.66 313.02M644.47 313.78C610.03 312.24 574.21 315.04 520.7 311.76M644.72 311.44C613.03 311.06 582.86 310.51 520.47 312.48M520 312C518.55 310.28 516.77 310.21 514.8 307.83M519.42 311.47C518.12 314.15 513.81 309.72 516.56 306.33M517.42 307.23C517.25 304.36 516.48 298.48 515.78 293.49M516.24 307.53C516.46 302.58 515.88 298.29 516.58 292.32M516 292C516.57 290.6 516.9 286.01 520.31 288.36M516 293.68C514.75 290.94 519.26 286.59 522.26 288.03M520 288C520 288 520 288 520 288M520 288C520 288 520 288 520 288" fill="none" stroke="var(--mcp-ink)" stroke-width="1.5" stroke-linecap="round" stroke-linejoin="round"/><text xml:space="preserve" x="582" y="304.04" text-anchor="middle" font-family='"Excalifont","Virgil","Segoe Print","Comic Sans MS",ui-rounded,cursive' font-size="12" fill="var(--mcp-on-accent)">isError</text><text xml:space="preserve" x="662" y="304.12" text-anchor="start" font-family='"JetBrains Mono",ui-monospace,Menlo,monospace' font-size="11" fill="var(--mcp-ink)">false</text><text xml:space="preserve" x="516" y="358.12" text-anchor="start" font-family='"JetBrains Mono",ui-monospace,Menlo,monospace' font-size="11" fill="var(--mcp-ink-subtle)">The text block repeats the same JSON.</text><text xml:space="preserve" x="516" y="382.12" text-anchor="start" font-family='"Excalifont","Virgil","Segoe Print","Comic Sans MS",ui-rounded,cursive' font-size="11" fill="var(--mcp-ink-muted)">The client validates it against the declared outputSchema.</text><text xml:space="preserve" x="516" y="402.12" text-anchor="start" font-family='"Excalifont","Virgil","Segoe Print","Comic Sans MS",ui-rounded,cursive' font-size="11" fill="var(--mcp-ink-muted)">Missing or non-conforming data fails on the client.</text><path d="M46.76 447.85C315.15 445.59 582.13 446.57 912.78 448C918.93 447.75 925.83 449.73 924.27 459.14C926.5 472.26 925.17 483.65 924.15 506.66C924.01 510.53 919.84 517.72 912.48 518.34C610.44 515.47 307.86 515.81 47.48 516.79C39.73 514.49 34.94 513.42 35.58 506.72C34.63 493.63 37.63 482.24 35.52 457.79C34.23 450.94 40.73 445.92 49.08 449.83C47.33 448 47.33 448 47.33 448" fill="var(--mcp-neutral-1)" stroke="none"/><path d="M46.55 448.01C256.95 446.81 466.12 448.21 912.07 447.98M47.47 448C298.93 449.85 550.81 449.61 912.41 447.63M912.67 448C918.54 448.11 923.45 451.1 924.75 459.41M911.98 447.41C921.65 450.09 926.24 451.33 923.78 460.41M924.84 460.39C923.65 478.21 925.43 495.91 925.74 503.93M924.84 459.89C923.58 470.72 925.15 482.18 923.38 504.61M924 504.67C922.27 510.5 922.08 516.52 912.28 514.87M925.84 503.96C924.78 512.28 921.46 515.21 914.66 518.3M912.38 516.02C644.2 518.97 374.58 520.4 47.27 516.38M912.69 516.28C632.36 513.39 352.5 513.66 47.16 515.74M47.33 516C38.9 516.51 34.12 510.93 35.68 502.9M46.34 516.08C41.72 518.09 37.09 512.57 37.58 505.01M34.86 502.72C37.75 490.52 35.17 476.75 36.29 458.91M35.67 505.32C36.34 494.22 36.07 485.42 35.8 458.81M36 459.33C35.34 451.31 41.35 449.29 48.94 447.25M35.98 458.14C36.14 452.33 40.06 446.38 48.16 449.76M47.33 448C47.33 448 47.33 448 47.33 448M47.33 448C47.33 448 47.33 448 47.33 448" fill="none" stroke="var(--mcp-border)" stroke-width="1.5" stroke-linecap="round" stroke-linejoin="round"/><text xml:space="preserve" x="56" y="469.96" text-anchor="start" font-family='"Excalifont","Virgil","Segoe Print","Comic Sans MS",ui-rounded,cursive' font-size="13" fill="var(--mcp-ink)">There is no earlier message in this exchange.</text><text xml:space="preserve" x="56" y="493.04" text-anchor="start" font-family='"Excalifont","Virgil","Segoe Print","Comic Sans MS",ui-rounded,cursive' font-size="12" fill="var(--mcp-ink-muted)">No handshake, no session identifier, nothing carried over from a previous call.</text>
</svg>
